<?xml version="1.0" encoding="utf-8"?>
<!-- Generator: Adobe Illustrator 15.0.0, SVG Export Plug-In . SVG Version: 6.00 Build 0)  -->
<!DOCTYPE svg PUBLIC "-//W3C//DTD SVG 1.1//EN" "http://www.w3.org/Graphics/SVG/1.1/DTD/svg11.dtd">
<svg version="1.1" id="Layer_1" xmlns="http://www.w3.org/2000/svg" xmlns:xlink="http://www.w3.org/1999/xlink" x="0px" y="0px"
	 width="594px" height="226.77px" viewBox="0 0 594 226.77" enable-background="new 0 0 594 226.77" xml:space="preserve">
<g>
	<rect x="19.994" y="18.427" fill="#0065BD" width="191.43" height="191.43"/>
	<g>
		<path fill="#FFFFFF" d="M51.233,102.642c1.458,0.795,3.181,1.325,5.168,1.723l1.722,7.951l-7.95,34.188l-3.578,2.518
			l-9.938,42.668l-8.083,6.229L51.233,102.642z M57.859,102.775c-7.421-0.133-13.383-5.964-13.383-13.251
			c0-7.818,6.095-13.383,13.781-13.383c3.578,0,6.758,1.589,8.878,4.241c-3.048-0.399-5.963,1.722-6.891,4.107
			c-0.794-0.265-1.456-0.265-1.987-0.265c-3.047,0-5.433,2.386-5.433,5.301c0,2.916,2.386,5.433,5.433,5.433
			s4.903-2.386,4.903-5.433c0-0.133,0-0.398,0-0.531c0.132-0.131,0.398-0.131,0.794-0.131c0.531,0,1.061,0.264,1.061,1.192
			c0,1.061-0.397,3.049-0.397,5.036c0,1.854,0.397,3.179,0.926,4.506l4.506,18.814c-0.663,0.531-1.325,1.193-1.856,1.988
			c-2.517,0.53-4.637,2.121-5.564,4.373L57.859,102.775z M85.554,115.23c-3.842,0-6.229,0.266-8.88,0.266
			c-4.107,0-7.156-1.724-8.082-5.036c1.59,0,2.783-1.325,2.783-2.916c0-3.18-4.903-6.361-4.903-12.456
			c0-1.987,0.264-3.844,0.264-5.301c0-1.589-1.325-2.65-2.783-2.65c-1.192,0-2.252,0.53-2.782,1.061
			c-0.265-3.711,2.782-6.494,6.625-6.229c0.53-1.192,2.519-2.65,4.77-2.65c1.591,0,2.386,0.399,3.181,0.928
			c0.663-0.266,1.458-0.398,2.517-0.398c3.048,0,6.361,2.519,6.361,6.36c0,3.578-2.12,5.302-4.241,6.76
			c-1.061,0.795-1.325,1.59-1.191,2.782c0.131,1.458,0.928,3.975,1.324,5.3c0.397,1.193,1.325,1.724,2.783,1.591
			c7.289-0.53,17.756-1.325,24.117-1.591c5.962-0.264,10.203-0.397,15.108-0.663c-9.278,2.253-14.578,8.481-16.036,17.36
			l-4.24,2.254C101.324,116.424,96.552,115.23,85.554,115.23z M79.59,151.143c1.59-0.397,2.386-1.591,2.386-2.652
			c0-1.589-0.928-2.65-2.121-3.445c-1.987-1.191-4.107-2.253-5.963-3.842c-1.987-1.723-3.179-3.182-4.374-4.772
			c-0.926-1.057-1.722-1.456-2.916-1.456c-1.455,0-2.517,1.061-2.517,2.252c0,0.663,0.133,1.195,0.398,1.591
			c-1.988-0.661-3.181-2.782-3.181-5.036c0-2.119,1.326-3.71,2.65-4.503c-0.133-0.399-0.264-0.93-0.264-1.591
			c0-2.782,2.253-5.435,5.829-5.698c0.665-1.856,2.652-3.315,5.302-3.315c3.179,0,6.493,2.387,6.493,6.627
			c0,2.121-0.531,2.65-0.531,4.241c0,0.928,0.265,1.723,1.59,3.048c1.591,1.591,2.386,2.519,3.314,2.519
			c0.926,0,1.458-0.398,2.517-1.193c5.964-5.036,11.13-10.337,18.286-14.178c0.133,6.226,2.517,11.262,7.688,15.106l-4.506,3.444
			c-0.795-0.796-1.59-1.062-2.649-1.062c-1.724,0-3.447,0.663-6.097,2.386c-3.048,1.987-8.082,7.155-11.662,10.601
			c-1.985,1.988-4.107,3.05-6.095,3.05C81.58,153.263,80.254,152.598,79.59,151.143z M68.327,126.76
			c-1.724,0-2.916,0.928-3.179,1.987c0.529-0.135,1.191-0.265,1.987-0.265c1.987,0,3.709,0.926,4.506,2.517
			C72.038,128.482,70.58,126.76,68.327,126.76z M80.783,191.689l-9.939-42.668l-3.576-2.518l-1.724-8.216
			c-0.265-1.062,0.266-1.591,1.059-1.591c0.532,0,0.931,0.266,1.458,0.795c1.725,1.988,2.783,3.18,4.639,4.771
			c1.06,0.93,2.384,1.723,3.711,2.387l8.215,35.644c-1.325,1.193-2.253,3.048-2.253,5.036c0,1.457,0.398,2.784,1.061,3.976
			c-0.266,0.663-0.396,1.325-0.396,2.122c0,0.792,0.13,1.587,0.527,2.385L80.783,191.689z M74.29,85.68
			c0-2.253-1.856-3.71-3.577-3.71c-0.795,0-1.325,0.265-1.722,0.398c2.251,0.928,3.842,2.916,3.708,6.625
			C73.892,88.199,74.29,86.875,74.29,85.68z M76.411,124.771c0-1.723-1.458-3.312-3.312-3.312c-1.061,0-1.724,0.396-2.123,0.663
			c2.519,0.528,4.506,2.648,4.639,5.299C76.014,126.76,76.411,126.097,76.411,124.771z M80.651,84.885
			c0-1.987-1.724-3.445-3.711-3.445c0.795,0.663,1.591,2.253,1.591,3.977c0,0.793-0.133,1.854-0.663,3.046
			C79.458,87.933,80.651,86.742,80.651,84.885z M84.892,191.427c0-0.931,0.131-1.459,0.529-2.388
			c-0.662-0.794-1.192-2.119-1.192-3.71s0.793-3.313,2.517-4.374c-0.529-3.974,2.65-6.623,6.229-6.623
			c3.975,0,5.962,2.781,6.625,5.563c0.529,1.988,1.324,2.65,2.252,2.784c1.722,0.266,4.504,0,5.565-0.266
			c1.192-0.265,1.723-0.928,1.723-2.916c0.133-13.914-1.589-22.792-1.589-27.826c0-5.432,3.046-7.818,6.228-8.88
			c4.24-1.458,12.588-2.649,16.695-2.516c1.856,0,2.782,1.191,3.577,2.386c1.458,2.251,2.652,4.637,4.11,7.685
			c-1.061,0.53-1.59,1.457-1.59,2.782c0,1.854,1.059,3.445,2.517,4.241l-15.504,0.396c-0.133,0.93-0.133,1.856-0.133,2.65
			c0,1.725,1.191,2.916,2.782,2.916c1.192,0,2.253-0.396,3.181-1.191c0.53,5.432-2.782,7.154-6.229,7.288
			c0.133,4.903,0.399,8.48,0.399,17.357c0,6.359-3.181,10.205-7.686,10.205c0.264-0.266,0.396-0.664,0.396-1.062
			c0-2.518-2.783-3.711-4.77-3.711c-3.975,0-6.095,3.182-10.469,3.182c-3.841,0-5.432-3.182-8.347-3.182
			c-1.857,0-3.181,1.193-3.181,2.784c0,0.793,0.265,1.457,0.795,2.122C87.805,197.125,84.892,194.736,84.892,191.427z
			 M90.06,184.271c-2.519,0-3.843,1.986-3.58,3.575c0.532-0.659,1.591-1.589,3.713-1.589c1.721,0,3.045,0.796,3.842,1.723
			C94.035,186.123,92.71,184.271,90.06,184.271z M91.252,178.173c-2.12,0-3.181,1.195-3.314,2.252
			c0.531-0.264,1.325-0.529,2.519-0.529c2.12,0,3.843,1.193,4.373,2.385C95.094,180.161,93.769,178.173,91.252,178.173z
			 M108.479,119.869c0-8.747,6.624-16.565,16.829-18.948c3.842-0.929,7.156-1.458,11.66-2.652
			c8.481-2.251,11.132-5.962,11.132-10.864c0-1.325-0.265-2.386-0.93-3.445c0.133,0.793,0.133,1.458,0.133,2.251
			c0,5.302-4.9,10.072-12.057,10.734c-3.843,0.266-7.951,0.795-11.927,1.194c-0.926,0.131-1.325-0.266-1.325-1.061l-0.133-6.36
			c0-0.266,0.133-0.53,0.532-0.53c0.266,0,0.396,0.133,0.529,0.397c0.796,1.194,2.386,2.386,4.637,2.386
			c1.856,0,2.916-1.062,2.916-2.253c0-1.325-1.192-2.517-3.576-2.517c-5.17,0-7.82,3.578-13.519,3.578
			c-6.226,0-8.348-3.048-8.348-5.964c0-2.386,1.325-3.843,3.048-4.637c-0.529,0.663-0.663,1.192-0.663,2.12
			c0,1.988,2.387,3.578,6.627,3.578c3.975,0,6.492-0.928,9.54-0.928c3.974,0,6.36,1.325,7.421,2.783
			c-0.133-3.049-2.386-5.698-5.301-5.698c-1.987,0-2.783,1.192-3.046,1.721c-0.133,0.399-0.399,0.532-0.665,0.532
			s-0.53-0.133-0.53-0.399l-0.663-6.624c-0.133-0.795,0.266-1.194,1.325-1.325l6.757-0.531c1.194,3.314,1.989,5.168,3.713,5.168
			c0.926,0,1.324-1.061,1.324-1.987c1.458-0.399,2.916-0.399,4.372-0.266c-1.721-1.192-7.42-0.529-9.143-2.915
			c2.783-0.133,4.902-0.264,7.156-0.264c2.253,0,4.241,0,6.097,0.264c2.118,0.266,4.24,1.458,4.24,3.71
			c0,1.458-0.797,2.52-2.255,2.52c-0.527,0-0.926-0.133-1.458-0.531c0.133,1.061,1.194,1.723,2.255,1.723
			c1.722,0,2.915-1.061,2.915-3.314c0-1.192-0.265-2.517-1.193-3.577c2.782,2.251,4.503,6.228,4.503,10.865
			c0,8.084-2.913,12.325-11.923,15.504c-4.639,1.591-8.347,2.65-12.986,4.373c-7.555,2.783-12.059,7.951-12.059,15.238
			c0,5.036,2.52,10.734,7.818,13.386C114.177,135.24,108.479,127.951,108.479,119.869z M116.428,123.314
			c0-7.156,3.975-11.396,11.663-14.312c4.24-1.59,8.347-2.782,12.189-3.975C149.688,101.714,153,96.811,153,88.066
			c0-3.71-1.059-7.288-2.782-9.408c2.916,2.519,5.301,6.36,5.301,12.987c0,6.89-1.987,13.913-11.529,17.491
			c-4.504,1.723-7.023,2.65-11.793,4.637c-7.421,3.181-9.805,7.422-9.805,13.12c0,5.433,2.915,8.482,5.166,10.335
			C122.126,136.301,116.428,130.733,116.428,123.314z M124.379,127.025c0-5.302,2.519-8.881,9.01-11.927
			c4.108-1.856,7.156-2.518,11.928-4.505c9.407-3.711,11.791-10.734,11.791-18.816c0-2.785-0.396-6.097-1.854-8.879
			c1.987,2.386,4.374,6.095,4.374,13.384c0,7.554-2.519,14.577-10.867,18.685c-3.975,1.854-6.624,2.916-11.13,5.036
			c-5.167,2.648-8.082,6.359-8.082,10.73c0,3.447,1.591,6.098,3.048,7.555C127.559,136.831,124.379,132.061,124.379,127.025z
			 M136.438,74.683c-2.65,0-5.299,0.133-8.082,0.397l-3.579-7.023h6.096c0,1.591,1.192,2.783,2.65,2.783
			c1.457,0,2.649-1.192,2.649-2.783h5.432c0,1.724,1.061,2.783,2.652,2.783c1.458,0,2.65-1.458,2.65-2.783H153l-4.107,7.289
			C145.582,74.947,141.341,74.683,136.438,74.683z M131.535,130.867c0-3.711,2.517-6.757,7.023-9.144
			c3.179-1.591,5.829-2.65,11.13-5.3c8.35-4.107,11.53-10.866,11.53-20.009c0-2.386-0.397-4.373-0.796-6.757
			c1.458,2.913,2.65,6.36,2.65,10.731c0,8.747-3.048,17.229-11.793,21.734c-3.711,1.854-5.831,3.046-8.614,4.369
			c-4.24,1.856-6.228,4.772-6.228,8.218c0,2.65,0.663,4.107,1.325,5.301C133.921,138.951,131.535,135.506,131.535,130.867z
			 M138.292,153.393c0-1.325,0.396-2.12,1.987-2.382c-1.854-4.109-3.312-6.762-4.373-8.482c-0.397-0.663,0-1.061,0.531-1.061
			c0.795,0,1.458,0.266,1.987,1.061c0.928,1.191,2.121,3.046,3.048,4.771c1.722,3.048,2.783,5.964,2.914,10.203h-1.325
			C140.28,157.502,138.292,155.514,138.292,153.393z M147.702,191.427c0-0.931,0.133-1.459,0.529-2.388
			c-0.662-0.794-1.191-2.119-1.191-3.71s0.795-3.313,2.519-4.374c-0.531-3.974,2.65-6.623,6.226-6.623
			c3.977,0,5.963,2.781,6.626,5.563c0.53,1.988,1.325,2.65,2.253,2.784c1.724,0.266,4.506,0,5.565-0.266
			c1.192-0.265,1.724-0.928,1.724-2.916c0-3.312-0.928-7.685-1.724-11.394c-1.987,0.264-6.89,0.529-10.6,0.529
			c-8.218,0-12.854-3.711-13.65-11.796c-0.263-3.312-0.926-6.491-2.915-10.07c-1.458-2.782-4.77-6.491-4.77-11.262
			c0-3.577,1.327-5.698,5.435-7.685c2.915-1.329,6.359-2.916,9.273-4.641c-0.133,4.641,2.65,10.866,6.229,13.517
			c3.975,2.915,7.686,3.711,13.119,3.711c6.228,0,12.191-1.856,15.373-5.564c-1.857,1.191-4.374,1.854-7.555,1.854
			c-9.806,0-16.035-7.553-16.035-15.637c0-5.83,3.182-10.998,8.48-15.37c4.374-3.579,8.35-5.831,11.396-8.879
			c1.989-1.987,3.713-4.372,3.713-7.154c0-3.314-2.255-6.494-4.639-7.422c1.324-1.59,3.974-3.048,6.36-3.048
			c3.974,0,7.685,2.916,7.685,6.759c0,2.915-1.724,5.168-3.975,6.228c0.133,2.253-1.325,5.168-3.049,7.023
			c-3.314,3.578-9.408,7.421-13.383,10.601c-3.977,3.182-6.094,6.494-6.094,10.999c0,5.963,4.77,10.336,10.865,10.336
			c5.698,0,10.601-4.373,10.601-10.469c0-5.565-3.975-9.674-10.069-12.457l5.034-3.578c5.432,3.182,11.396,7.555,11.396,16.961
			c0,12.986-10.468,24.385-27.429,24.385c-5.301,0-6.759-0.664-10.071-1.989c2.12,1.989,4.373,4.904,4.506,8.482
			c2.65,0.795,4.504,1.19,10.203,1.19c2.518,0,5.964-0.396,8.746-1.19c1.988-0.532,3.181-1.325,3.842-2.255
			c0.664,1.06,1.061,2.255,1.061,3.313c0,3.048-2.253,5.435-4.637,5.964c0.926,9.407,1.722,18.814,1.722,27.296
			c0,6.359-3.179,10.205-7.686,10.205c0.265-0.266,0.398-0.664,0.398-1.062c0-2.518-2.783-3.711-4.772-3.711
			c-3.975,0-6.095,3.182-10.468,3.182c-3.843,0-5.432-3.182-8.347-3.182c-1.855,0-3.179,1.193-3.179,2.784
			c0,0.793,0.263,1.457,0.793,2.122C150.617,197.125,147.702,194.736,147.702,191.427z M152.868,184.271
			c-2.517,0-3.841,1.986-3.576,3.575c0.529-0.659,1.591-1.589,3.708-1.589c1.724,0,3.048,0.796,3.844,1.723
			C156.845,186.123,155.52,184.271,152.868,184.271z M154.062,178.173c-2.12,0-3.179,1.195-3.312,2.252
			c0.529-0.264,1.325-0.529,2.517-0.529c2.12,0,3.841,1.193,4.373,2.385C157.906,180.161,156.581,178.173,154.062,178.173z
			 M170.627,91.908c-1.99-1.059-3.711-3.312-3.711-5.962c0-3.843,3.312-6.759,7.287-6.759c3.048,0,5.168,1.458,6.494,3.048
			c-2.518,1.325-4.504,4.506-4.504,7.422c0,3.841,1.987,6.227,3.842,8.215l-4.903,3.578
			C172.349,98.931,170.627,95.619,170.627,91.908z"/>
	</g>
	<g>
		<path fill="#0065BD" d="M259.735,59.441v6.241h-10.833v4.471h10.714v6.082h-10.714v10.59h-7.893V59.441H259.735z"/>
		<path fill="#0065BD" d="M279.833,81.147h-8.739l-1.491,5.678h-8.096l8.176-27.384h11.558l8.218,27.384h-8.096L279.833,81.147z
			 M278.343,75.549l-2.701-10.109h-0.361l-2.699,10.109H278.343z"/>
		<path fill="#0065BD" d="M292.479,73.133c0-8.738,6.887-14.056,14.98-14.056c3.222,0,5.237,0.564,6.847,1.29v6.806
			c-1.532-0.766-3.263-1.329-5.76-1.329c-3.664,0-7.449,2.335-7.449,7.289s4.146,7.129,7.007,7.129c2.859,0,4.67-0.725,6.241-1.571
			v6.886c-1.648,0.846-4.389,1.692-7.651,1.692C298.639,87.269,292.479,81.872,292.479,73.133z"/>
		<path fill="#0065BD" d="M320.065,76.717V59.441h7.893v16.552c0,3.101,1.691,4.47,3.907,4.47c2.217,0,3.906-1.37,3.906-4.47V59.441
			h7.893v17.276c0,7.652-5.356,10.753-11.799,10.753C325.422,87.471,320.065,84.369,320.065,76.717z"/>
		<path fill="#0065BD" d="M351.519,59.441h7.894v20.901h9.788v6.483h-17.682V59.441z"/>
		<path fill="#0065BD" d="M375.562,65.845h-6.847v-6.404h21.545v6.404h-6.804v20.98h-7.895V65.845z"/>
		<path fill="#0065BD" d="M400.813,76.797l-9.263-17.356h8.942l4.308,9.786h0.163l4.468-9.786h8.742l-9.467,17.356v10.028h-7.894
			V76.797z"/>
	</g>
	<g>
		<path fill="#0065BD" d="M239.398,114.133c0-9.144,5.597-14.338,13.731-14.338c8.176,0,13.653,5.194,13.653,14.338
			c0,9.141-5.478,14.336-13.653,14.336C244.995,128.469,239.398,123.273,239.398,114.133z M258.326,114.133
			c0-4.511-1.651-7.331-5.196-7.331c-3.504,0-5.274,2.82-5.274,7.331c0,4.51,1.77,7.329,5.274,7.329
			C256.675,121.462,258.326,118.643,258.326,114.133z"/>
		<path fill="#0065BD" d="M291.954,100.44v6.241H281.12v4.471h10.714v6.081H281.12v10.593h-7.893V100.44H291.954z"/>
		<path fill="#0065BD" d="M308.506,100.44h12.729c6.281,0,9.303,3.542,9.303,7.33c0,3.342-2.096,5.073-3.948,5.798v0.161
			c2.055,0.523,5.195,2.055,5.195,6.686c0,3.464-2.818,7.411-9.867,7.411h-13.411V100.44z M320.024,111.634
			c1.611,0,2.659-1.248,2.659-2.657c0-1.411-1.048-2.658-2.659-2.658h-3.623v5.315H320.024z M320.872,121.944
			c1.689,0,2.777-1.329,2.777-2.9c0-1.409-1.088-2.819-2.777-2.819h-4.471v5.72H320.872z"/>
		<path fill="#0065BD" d="M338.188,100.44h7.895v27.385h-7.895V100.44z"/>
		<path fill="#0065BD" d="M352.528,114.133c0-9.144,5.597-14.338,13.731-14.338c8.175,0,13.653,5.194,13.653,14.338
			c0,9.141-5.479,14.336-13.653,14.336C358.125,128.469,352.528,123.273,352.528,114.133z M371.455,114.133
			c0-4.511-1.651-7.331-5.195-7.331c-3.505,0-5.274,2.82-5.274,7.331c0,4.51,1.77,7.329,5.274,7.329
			C369.804,121.462,371.455,118.643,371.455,114.133z"/>
		<path fill="#0065BD" d="M386.316,100.44h9.342l5.64,9.704h0.122l5.637-9.704h9.143v27.385h-7.692V111.07h-0.121l-6.767,11.679
			h-0.563l-7.087-11.638h-0.121v16.714h-7.531V100.44z"/>
		<path fill="#0065BD" d="M424.254,100.44h18.889v6.241h-10.996v4.389h10.633v6.082h-10.633v4.43h10.996v6.243h-18.889V100.44z"/>
		<path fill="#0065BD" d="M450.352,100.44h10.832c7.854,0,14.057,5.436,14.057,13.693s-6.202,13.692-14.057,13.692h-10.832V100.44z
			 M459.896,121.019c3.785,0,6.686-2.457,6.686-6.886c0-4.431-2.9-6.887-6.686-6.887h-1.653v13.773H459.896z"/>
		<path fill="#0065BD" d="M481.685,100.44h7.893v27.385h-7.893V100.44z"/>
		<path fill="#0065BD" d="M496.022,114.133c0-8.74,6.886-14.057,14.981-14.057c3.22,0,5.234,0.564,6.845,1.29v6.806
			c-1.529-0.766-3.262-1.329-5.759-1.329c-3.666,0-7.449,2.335-7.449,7.29c0,4.953,4.147,7.128,7.008,7.128
			c2.856,0,4.671-0.727,6.241-1.571v6.886c-1.651,0.847-4.389,1.693-7.651,1.693C502.183,128.269,496.022,122.871,496.022,114.133z"
			/>
		<path fill="#0065BD" d="M539.599,122.146h-8.742l-1.49,5.68h-8.092l8.174-27.385h11.558l8.216,27.385h-8.095L539.599,122.146z
			 M538.105,116.548l-2.696-10.109h-0.363l-2.697,10.109H538.105z"/>
		<path fill="#0065BD" d="M553.454,100.44h7.891v20.9h9.786v6.485h-17.677V100.44z"/>
	</g>
	<g>
		<path fill="#0065BD" d="M241.009,141.439h18.888v6.241h-10.995v4.389h10.632v6.084h-10.632v4.43h10.995v6.241h-18.888V141.439z"/>
		<path fill="#0065BD" d="M267.105,141.439h9.707l8.215,16.35h0.121v-16.35h7.893v27.385h-9.624l-8.297-16.432h-0.121v16.432h-7.893
			V141.439z"/>
		<path fill="#0065BD" d="M299.487,155.133c0-8.94,6.24-14.701,15.542-14.701c3.626,0,6.284,1.008,7.894,1.734v6.442
			c-1.489-0.806-3.905-1.771-6.726-1.771c-5.113,0-8.094,2.738-8.094,8.296c0,5.155,3.384,7.49,6.445,7.49
			c0.602,0,1.207-0.081,1.77-0.203v-7.409h7.691v12.123c-1.648,0.845-5.034,2.335-9.907,2.335
			C306.453,169.469,299.487,164.072,299.487,155.133z"/>
		<path fill="#0065BD" d="M330.859,141.439h7.893v27.385h-7.893V141.439z"/>
		<path fill="#0065BD" d="M346.807,141.439h9.705l8.218,16.35h0.118v-16.35h7.893v27.385h-9.623l-8.296-16.432h-0.12v16.432h-7.895
			V141.439z"/>
		<path fill="#0065BD" d="M380.798,141.439h18.886v6.241H388.69v4.389h10.631v6.084H388.69v4.43h10.993v6.241h-18.886V141.439z"/>
		<path fill="#0065BD" d="M406.894,141.439h18.889v6.241h-10.994v4.389h10.631v6.084h-10.631v4.43h10.994v6.241h-18.889V141.439z"/>
		<path fill="#0065BD" d="M432.991,141.439h12.566c6.401,0,10.31,4.107,10.31,9.02c0,4.674-3.424,6.728-5.84,7.812l-0.042,0.163
			c0.364,0.24,1.008,1.048,1.532,1.932l5.034,8.458h-8.901l-4.753-9.625h-2.015v9.625h-7.892V141.439z M444.066,154.084
			c2.135,0,3.383-1.691,3.383-3.422c0-1.732-1.248-3.385-3.383-3.385h-3.184v6.807H444.066z"/>
		<path fill="#0065BD" d="M462.229,141.439h7.896v27.385h-7.896V141.439z"/>
		<path fill="#0065BD" d="M478.18,141.439h9.703l8.217,16.35h0.122v-16.35h7.893v27.385h-9.627l-8.294-16.432h-0.122v16.432h-7.892
			V141.439z"/>
		<path fill="#0065BD" d="M510.558,155.133c0-8.94,6.244-14.701,15.547-14.701c3.622,0,6.28,1.008,7.894,1.734v6.442
			c-1.493-0.806-3.908-1.771-6.726-1.771c-5.115,0-8.096,2.738-8.096,8.296c0,5.155,3.384,7.49,6.442,7.49
			c0.605,0,1.208-0.081,1.774-0.203v-7.409h7.69v12.123c-1.652,0.845-5.033,2.335-9.906,2.335
			C517.527,169.469,510.558,164.072,510.558,155.133z"/>
	</g>
	<g>
		<path fill="#0065BD" d="M239.398,196.131c0-8.738,6.886-14.056,14.98-14.056c3.222,0,5.237,0.564,6.847,1.289v6.807
			c-1.532-0.766-3.263-1.327-5.761-1.327c-3.664,0-7.449,2.333-7.449,7.287c0,4.953,4.146,7.129,7.007,7.129
			c2.858,0,4.67-0.727,6.241-1.571v6.888c-1.649,0.845-4.389,1.691-7.652,1.691C245.558,210.268,239.398,204.87,239.398,196.131z"/>
		<path fill="#0065BD" d="M271.574,188.844h-6.845v-6.406h21.546v6.406h-6.807v20.979h-7.895V188.844z"/>
		<path fill="#0065BD" d="M291.19,199.716v-17.278h7.894v16.552c0,3.104,1.69,4.47,3.906,4.47c2.214,0,3.906-1.366,3.906-4.47
			v-16.552h7.895v17.278c0,7.651-5.358,10.752-11.801,10.752C296.546,210.468,291.19,207.367,291.19,199.716z"/>
	</g>
	<g>
		<path fill="#0065BD" d="M332.794,182.438h7.893v27.385h-7.893V182.438z"/>
		<path fill="#0065BD" d="M348.741,182.438h9.706l8.216,16.352h0.12v-16.352h7.893v27.385h-9.624l-8.295-16.431h-0.122v16.431
			h-7.894V182.438z"/>
	</g>
	<g>
		<path fill="#0065BD" d="M392.841,182.438h11.919c6.406,0,10.393,4.389,10.393,9.423c0,5.032-3.986,9.102-10.393,9.102h-4.024v8.86
			h-7.895V182.438z M403.834,195.085c1.734,0,3.302-1.411,3.302-3.386c0-1.93-1.567-3.381-3.302-3.381h-3.099v6.767H403.834z"/>
	</g>
	<g>
		<path fill="#0065BD" d="M420.993,182.438h12.565c6.402,0,10.311,4.106,10.311,9.02c0,4.674-3.424,6.728-5.841,7.812l-0.041,0.165
			c0.364,0.238,1.008,1.047,1.532,1.932l5.033,8.456h-8.899l-4.753-9.626h-2.016v9.626h-7.892V182.438z M432.068,195.085
			c2.135,0,3.383-1.693,3.383-3.424c0-1.732-1.248-3.384-3.383-3.384h-3.184v6.808H432.068z"/>
		<path fill="#0065BD" d="M464.489,204.144h-8.739l-1.49,5.679h-8.096l8.176-27.385h11.558l8.217,27.385h-8.096L464.489,204.144z
			 M463,198.547l-2.7-10.11h-0.362l-2.698,10.11H463z"/>
		<path fill="#0065BD" d="M477.097,196.131c0-8.94,6.241-14.701,15.543-14.701c3.626,0,6.284,1.008,7.894,1.734v6.441
			c-1.489-0.805-3.906-1.771-6.726-1.771c-5.113,0-8.094,2.74-8.094,8.297c0,5.156,3.383,7.489,6.444,7.489
			c0.602,0,1.208-0.079,1.771-0.201v-7.408h7.691v12.118c-1.649,0.849-5.034,2.339-9.907,2.339
			C484.063,210.468,477.097,205.069,477.097,196.131z"/>
		<path fill="#0065BD" d="M508.269,199.716v-17.278h7.892v16.552c0,3.104,1.69,4.47,3.906,4.47s3.908-1.366,3.908-4.47v-16.552
			h7.894v17.278c0,7.651-5.358,10.752-11.802,10.752C513.625,210.468,508.269,207.367,508.269,199.716z"/>
		<path fill="#0065BD" d="M539.719,182.438h18.891v6.241h-10.994v4.393h10.63v6.082h-10.63v4.428h10.994v6.241h-18.891V182.438z"/>
	</g>
</g>
</svg>
