<?xml version="1.0" encoding="utf-8"?>
<!-- Generator: Adobe Illustrator 15.0.0, SVG Export Plug-In . SVG Version: 6.00 Build 0)  -->
<!DOCTYPE svg PUBLIC "-//W3C//DTD SVG 1.1//EN" "http://www.w3.org/Graphics/SVG/1.1/DTD/svg11.dtd">
<svg version="1.1" id="Layer_1" xmlns="http://www.w3.org/2000/svg" xmlns:xlink="http://www.w3.org/1999/xlink" x="0px" y="0px"
	 width="617.332px" height="226.77px" viewBox="0 0 617.332 226.77" enable-background="new 0 0 617.332 226.77"
	 xml:space="preserve">
<g>
	<rect x="19.994" y="18.427" fill="#0065BD" width="190.886" height="190.884"/>
	<g>
		<path fill="#FFFFFF" d="M174.707,101.206l4.891-3.569c-1.849-1.982-3.833-4.361-3.833-8.194c0-2.907,1.983-6.079,4.493-7.4
			c-1.321-1.586-3.437-3.038-6.475-3.038c-3.965,0-7.27,2.907-7.27,6.738c0,2.643,1.719,4.891,3.702,5.947
			C170.216,95.39,171.935,98.692,174.707,101.206 M148.544,75.172l4.096-7.27h-6.079c0,1.321-1.19,2.774-2.646,2.774
			c-1.583,0-2.641-1.056-2.641-2.774h-5.418c0,1.586-1.188,2.774-2.642,2.774s-2.645-1.188-2.645-2.774h-6.079l3.57,7.003
			c2.776-0.263,5.417-0.394,8.061-0.394C141.008,74.511,145.24,74.774,148.544,75.172 M137.442,139.659
			c-0.661-1.188-1.321-2.644-1.321-5.284c0-3.438,1.982-6.344,6.212-8.195c2.775-1.321,4.887-2.51,8.589-4.358
			c8.721-4.493,11.761-12.952,11.761-21.674c0-4.36-1.191-7.798-2.643-10.705c0.394,2.379,0.792,4.363,0.792,6.74
			c0,9.119-3.17,15.859-11.497,19.954c-5.284,2.643-7.93,3.7-11.103,5.287c-4.489,2.377-7.003,5.418-7.003,9.118
			C131.23,135.166,133.607,138.604,137.442,139.659 M132.288,137.943c-1.452-1.456-3.038-4.099-3.038-7.533
			c0-4.361,2.905-8.062,8.059-10.705c4.493-2.114,7.135-3.173,11.099-5.021c8.328-4.096,10.837-11.101,10.837-18.632
			c0-7.27-2.377-10.97-4.361-13.349c1.454,2.777,1.851,6.08,1.851,8.856c0,8.061-2.377,15.064-11.761,18.764
			c-4.758,1.981-7.798,2.642-11.894,4.492c-6.477,3.041-8.986,6.609-8.986,11.894C124.095,131.731,127.267,136.487,132.288,137.943
			 M127.267,136.885c-2.249-1.849-5.156-4.889-5.156-10.308c0-5.682,2.379-9.91,9.78-13.082c4.76-1.982,7.27-2.907,11.763-4.626
			c9.515-3.568,11.496-10.573,11.496-17.445c0-6.605-2.379-10.44-5.286-12.95c1.718,2.114,2.776,5.684,2.776,9.382
			c0,8.722-3.305,13.612-12.687,16.917c-3.833,1.188-7.929,2.377-12.159,3.963c-7.664,2.907-11.629,7.135-11.629,14.273
			C116.166,130.41,121.848,135.961,127.267,136.885 M121.98,135.961c-5.286-2.644-7.798-8.325-7.798-13.349
			c0-7.269,4.493-12.422,12.024-15.199c4.629-1.716,8.328-2.772,12.954-4.359c8.986-3.172,11.894-7.4,11.894-15.461
			c0-4.625-1.719-8.589-4.493-10.835c0.923,1.056,1.188,2.377,1.188,3.568c0,2.247-1.188,3.303-2.907,3.303
			c-1.058,0-2.116-0.661-2.247-1.717c0.528,0.394,0.926,0.528,1.456,0.528c1.452,0,2.245-1.058,2.245-2.511
			c0-2.247-2.114-3.438-4.228-3.701c-1.851-0.265-3.835-0.265-6.08-0.265s-4.361,0.132-7.135,0.265
			c1.716,2.379,7.4,1.719,9.117,2.907c-1.455-0.13-2.907-0.13-4.362,0.263c0,0.928-0.394,1.984-1.319,1.984
			c-1.719,0-2.512-1.85-3.7-5.154l-6.74,0.53c-1.058,0.13-1.454,0.528-1.323,1.321l0.663,6.607c0,0.263,0.265,0.396,0.53,0.396
			c0.263,0,0.526-0.133,0.659-0.53c0.265-0.528,1.06-1.717,3.04-1.717c2.907,0,5.154,2.645,5.285,5.682
			c-1.056-1.452-3.434-2.775-7.4-2.775c-3.038,0-5.547,0.926-9.513,0.926c-4.229,0-6.607-1.586-6.607-3.568
			c0-0.925,0.13-1.456,0.661-2.116c-1.719,0.793-3.04,2.249-3.04,4.626c0,2.907,2.116,5.949,8.324,5.949
			c5.682,0,8.328-3.57,13.48-3.57c2.379,0,3.569,1.189,3.569,2.512c0,1.188-1.06,2.247-2.907,2.247
			c-2.249,0-3.831-1.188-4.625-2.379c-0.132-0.265-0.265-0.396-0.53-0.396c-0.394,0-0.528,0.263-0.528,0.528l0.134,6.342
			c0,0.793,0.394,1.191,1.321,1.058c3.963-0.397,8.059-0.925,11.894-1.188c7.136-0.661,12.026-5.421,12.026-10.705
			c0-0.793,0-1.456-0.132-2.247c0.658,1.058,0.923,2.114,0.923,3.435c0,4.891-2.642,8.591-11.099,10.838
			c-4.495,1.188-7.798,1.716-11.633,2.642c-10.175,2.379-16.78,10.175-16.78,18.898C108.238,127.636,113.919,134.903,121.98,135.961
			 M77.708,88.254c0.53-1.188,0.663-2.247,0.663-3.04c0-1.719-0.795-3.303-1.586-3.963c1.982,0,3.698,1.452,3.698,3.435
			C80.483,86.535,79.294,87.726,77.708,88.254 M102.026,119.705l4.228-2.247c1.454-8.852,6.738-15.063,15.99-17.311
			c-4.889,0.263-9.119,0.396-15.064,0.661c-6.342,0.263-16.783,1.058-24.05,1.586c-1.456,0.132-2.379-0.398-2.777-1.586
			c-0.396-1.321-1.188-3.833-1.321-5.286c-0.134-1.19,0.133-1.984,1.191-2.775c2.112-1.456,4.228-3.172,4.228-6.74
			c0-3.833-3.305-6.342-6.344-6.342c-1.056,0-1.849,0.13-2.51,0.394c-0.795-0.526-1.586-0.924-3.172-0.924
			c-2.249,0-4.229,1.454-4.758,2.643c-3.831-0.263-6.871,2.511-6.607,6.211c0.528-0.53,1.586-1.056,2.776-1.056
			c1.452,0,2.775,1.056,2.775,2.642c0,1.454-0.265,3.305-0.265,5.284c0,6.082,4.891,9.253,4.891,12.424
			c0,1.586-1.19,2.907-2.776,2.907c0.925,3.305,3.965,5.021,8.061,5.021c2.644,0,5.023-0.264,8.854-0.264
			C96.344,114.948,101.098,116.137,102.026,119.705 M142.726,157.104h1.325c-0.136-4.23-1.19-7.138-2.907-10.175
			c-0.927-1.719-2.116-3.568-3.042-4.761c-0.528-0.791-1.19-1.054-1.982-1.054c-0.53,0-0.925,0.394-0.53,1.054
			c1.06,1.719,2.512,4.363,4.363,8.459c-1.586,0.265-1.984,1.058-1.984,2.379C137.97,155.121,139.954,157.104,142.726,157.104
			 M72.557,88.782c0.13-3.7-1.454-5.682-3.7-6.607c0.396-0.133,0.923-0.397,1.717-0.397c1.718,0,3.569,1.456,3.569,3.702
			C74.143,86.668,73.745,87.989,72.557,88.782 M157.264,181.815c-0.528-1.188-2.247-2.377-4.361-2.377
			c-1.19,0-1.981,0.263-2.512,0.528c0.133-1.059,1.19-2.247,3.305-2.247C156.206,177.72,157.527,179.701,157.264,181.815
			 M156.471,187.499c-0.793-0.925-2.112-1.719-3.831-1.719c-2.116,0-3.172,0.926-3.702,1.587c-0.263-1.587,1.058-3.568,3.57-3.568
			C155.15,183.799,156.471,185.648,156.471,187.499 M62.514,124.461c0.923-2.246,3.038-3.83,5.549-4.358
			c0.526-0.795,1.188-1.454,1.851-1.983l-4.493-18.767c-0.53-1.319-0.928-2.64-0.928-4.493c0-1.979,0.397-3.963,0.397-5.02
			c0-0.925-0.528-1.188-1.056-1.188c-0.397,0-0.663,0-0.793,0.131v0.53c0,3.038-1.853,5.417-4.891,5.417s-5.419-2.51-5.419-5.417
			s2.381-5.288,5.419-5.288c0.528,0,1.19,0,1.981,0.265c0.926-2.377,3.833-4.493,6.871-4.096c-2.112-2.644-5.284-4.23-8.852-4.23
			c-7.666,0-13.743,5.551-13.743,13.349c0,7.266,5.947,13.083,13.347,13.215L62.514,124.461z M82.997,152.874
			c1.982,0,4.096-1.058,6.078-3.037c3.567-3.438,8.591-8.591,11.63-10.575c2.642-1.717,4.361-2.377,6.078-2.377
			c1.058,0,1.853,0.265,2.644,1.059l4.493-3.438c-5.154-3.833-7.533-8.854-7.666-15.064c-7.135,3.831-12.289,9.119-18.238,14.139
			c-1.056,0.795-1.584,1.188-2.51,1.188c-0.925,0-1.719-0.924-3.305-2.51c-1.321-1.321-1.586-2.114-1.586-3.037
			c0-1.586,0.53-2.116,0.53-4.23c0-4.229-3.303-6.607-6.475-6.607c-2.645,0-4.626,1.453-5.287,3.305
			c-3.569,0.263-5.816,2.907-5.816,5.68c0,0.663,0.134,1.192,0.267,1.586c-1.321,0.795-2.646,2.38-2.646,4.495
			c0,2.247,1.19,4.361,3.174,5.021c-0.267-0.397-0.397-0.926-0.397-1.586c0-1.188,1.058-2.246,2.511-2.246
			c1.189,0,1.982,0.397,2.907,1.453c1.189,1.586,2.379,3.04,4.361,4.758c1.851,1.587,3.963,2.643,5.947,3.833
			c1.189,0.791,2.112,1.85,2.112,3.436c0,1.058-0.791,2.246-2.377,2.644C80.087,152.214,81.411,152.874,82.997,152.874
			 M75.464,127.105c-0.133-2.645-2.114-4.757-4.626-5.284c0.397-0.268,1.056-0.661,2.114-0.661c1.849,0,3.305,1.584,3.305,3.301
			C76.257,125.784,75.859,126.444,75.464,127.105 M90.132,196.616c-0.53-0.66-0.793-1.321-0.793-2.114
			c0-1.584,1.321-2.774,3.17-2.774c2.907,0,4.493,3.172,8.328,3.172c4.361,0,6.473-3.172,10.438-3.172c1.983,0,4.76,1.19,4.76,3.7
			c0,0.397-0.136,0.793-0.397,1.058c4.493,0,7.662-3.832,7.662-10.177c0-8.854-0.261-12.422-0.394-17.311
			c3.437-0.133,6.738-1.851,6.208-7.268c-0.923,0.791-1.979,1.188-3.168,1.188c-1.586,0-2.777-1.188-2.777-2.907
			c0-0.795,0-1.719,0.131-2.645l15.463-0.397c-1.454-0.791-2.51-2.377-2.51-4.226c0-1.321,0.528-2.247,1.586-2.777
			c-1.456-3.037-2.644-5.417-4.096-7.663c-0.795-1.188-1.719-2.379-3.57-2.379c-4.098-0.133-12.421,1.056-16.652,2.512
			c-3.17,1.056-6.212,3.435-6.212,8.852c0,5.023,1.719,13.877,1.586,27.753c0,1.983-0.528,2.644-1.717,2.907
			c-1.058,0.265-3.833,0.527-5.551,0.265c-0.924-0.135-1.719-0.793-2.247-2.774c-0.661-2.776-2.642-5.552-6.607-5.552
			c-3.57,0-6.738,2.645-6.21,6.607c-1.719,1.059-2.512,2.777-2.512,4.361c0,1.586,0.528,2.907,1.188,3.7
			c-0.396,0.925-0.526,1.453-0.526,2.379C84.715,194.239,87.623,196.616,90.132,196.616 M71.497,130.673
			c-0.791-1.586-2.51-2.51-4.493-2.51c-0.791,0-1.452,0.133-1.98,0.264c0.263-1.059,1.454-1.982,3.172-1.982
			C70.442,126.444,71.894,128.163,71.497,130.673 M94.625,181.815c-0.53-1.188-2.247-2.377-4.361-2.377
			c-1.19,0-1.983,0.263-2.512,0.528c0.131-1.059,1.19-2.247,3.305-2.247C93.567,177.72,94.889,179.701,94.625,181.815
			 M83.39,193.313c-0.394-0.793-0.526-1.586-0.526-2.379s0.132-1.454,0.396-2.114c-0.661-1.19-1.058-2.512-1.058-3.965
			c0-1.982,0.928-3.831,2.249-5.021l-8.193-35.549c-1.323-0.66-2.644-1.453-3.7-2.379c-1.851-1.586-2.907-2.774-4.626-4.757
			c-0.53-0.527-0.927-0.793-1.454-0.793c-0.795,0-1.321,0.528-1.056,1.587l1.716,8.191l3.568,2.512l9.91,42.551L83.39,193.313z
			 M93.834,187.499c-0.795-0.925-2.116-1.719-3.835-1.719c-2.116,0-3.172,0.926-3.702,1.587c-0.261-1.587,1.06-3.568,3.57-3.568
			C92.509,183.799,93.834,185.648,93.834,187.499 M28.549,197.409l8.061-6.212l9.912-42.551l3.568-2.512l7.93-34.093l-1.718-7.929
			c-1.984-0.397-3.702-0.925-5.154-1.718L28.549,197.409z M152.771,196.616c-0.528-0.66-0.793-1.321-0.793-2.114
			c0-1.584,1.321-2.774,3.172-2.774c2.907,0,4.493,3.172,8.326,3.172c4.359,0,6.475-3.172,10.438-3.172
			c1.983,0,4.758,1.19,4.758,3.7c0,0.397-0.132,0.793-0.396,1.058c4.493,0,7.664-3.832,7.664-10.177
			c0-8.456-0.791-17.839-1.719-27.223c2.379-0.527,4.626-2.907,4.626-5.946c0-1.057-0.394-2.247-1.056-3.303
			c-0.663,0.925-1.851,1.716-3.831,2.246c-2.776,0.791-6.212,1.188-8.725,1.188c-5.682,0-7.531-0.397-10.173-1.188
			c-0.134-3.567-2.379-6.477-4.493-8.458c3.303,1.32,4.756,1.981,10.042,1.981c16.915,0,27.355-11.364,27.355-24.315
			c0-9.384-5.947-13.743-11.366-16.915l-5.021,3.568c6.079,2.774,10.042,6.871,10.042,12.421c0,6.079-4.887,10.442-10.569,10.442
			c-6.081,0-10.837-4.363-10.837-10.31c0-4.491,2.112-7.796,6.077-10.968c3.965-3.17,10.045-7.003,13.35-10.571
			c1.718-1.853,3.17-4.76,3.038-7.007c2.247-1.056,3.965-3.301,3.965-6.21c0-3.831-3.698-6.738-7.664-6.738
			c-2.381,0-5.021,1.452-6.346,3.038c2.381,0.926,4.627,4.096,4.627,7.4c0,2.777-1.716,5.154-3.7,7.136
			c-3.04,3.042-7.003,5.288-11.366,8.856c-5.286,4.361-8.458,9.514-8.458,15.329c0,8.062,6.212,15.594,15.99,15.594
			c3.172,0,5.684-0.66,7.535-1.851c-3.172,3.7-9.117,5.551-15.329,5.551c-5.421,0-9.119-0.795-13.083-3.7
			c-3.57-2.642-6.344-8.854-6.212-13.479c-2.907,1.719-6.344,3.303-9.251,4.626c-4.098,1.981-5.419,4.096-5.419,7.663
			c0,4.759,3.305,8.459,4.756,11.233c1.984,3.567,2.645,6.74,2.907,10.043c0.795,8.062,5.421,11.763,13.612,11.763
			c3.702,0,8.589-0.265,10.573-0.53c0.793,3.702,1.719,8.062,1.719,11.366c0,1.983-0.53,2.644-1.719,2.907
			c-1.056,0.265-3.833,0.527-5.549,0.265c-0.924-0.135-1.719-0.793-2.249-2.774c-0.659-2.776-2.642-5.552-6.605-5.552
			c-3.57,0-6.74,2.645-6.212,6.607c-1.719,1.059-2.512,2.777-2.512,4.361c0,1.586,0.528,2.907,1.19,3.7
			c-0.397,0.925-0.53,1.453-0.53,2.379C147.352,194.239,150.261,196.616,152.771,196.616"/>
		<path fill="#0065BD" d="M538.277,209.315h18.835v-6.227h-10.963v-4.417h10.604v-6.063h-10.604v-4.378h10.963v-6.226h-18.835
			V209.315z M518.68,209.955c6.426,0,11.767-3.092,11.767-10.722v-17.229h-7.872v16.506c0,3.092-1.686,4.456-3.895,4.456
			c-2.208,0-3.894-1.364-3.894-4.456v-16.506h-7.872v17.229C506.914,206.863,512.255,209.955,518.68,209.955 M490.41,209.955
			c4.857,0,8.23-1.484,9.877-2.33v-12.086h-7.669v7.389c-0.563,0.121-1.165,0.2-1.768,0.2c-3.054,0-6.426-2.328-6.426-7.471
			c0-5.539,2.971-8.271,8.07-8.271c2.813,0,5.222,0.964,6.709,1.767v-6.426c-1.607-0.723-4.258-1.727-7.87-1.727
			c-9.279,0-15.505,5.742-15.505,14.656C475.829,204.576,482.776,209.955,490.41,209.955 M455.992,198.068l2.688-10.08h0.362
			l2.693,10.08H455.992z M464.744,209.315h8.075l-8.193-27.311h-11.525l-8.153,27.311h8.071l1.488-5.663h8.714L464.744,209.315z
			 M427.719,194.615v-6.787h3.172c2.13,0,3.375,1.646,3.375,3.373c0,1.729-1.245,3.414-3.375,3.414H427.719z M419.847,209.315h7.872
			v-9.601h2.007l4.739,9.601h8.875l-5.018-8.436c-0.521-0.883-1.165-1.686-1.527-1.928l0.041-0.161
			c2.408-1.084,5.822-3.134,5.822-7.79c0-4.9-3.896-8.996-10.278-8.996h-12.533V209.315z M399.648,194.615v-6.746h3.093
			c1.725,0,3.291,1.444,3.291,3.371c0,1.97-1.566,3.375-3.291,3.375H399.648z M391.776,209.315h7.872v-8.837h4.017
			c6.385,0,10.359-4.055,10.359-9.076c0-5.02-3.975-9.397-10.359-9.397h-11.889V209.315z M347.803,209.315h7.872V192.93h0.119
			l8.275,16.386h9.596v-27.311h-7.87v16.305h-0.12l-8.191-16.305h-9.681V209.315z M331.901,209.315h7.87v-27.311h-7.87V209.315z
			 M302.224,209.955c6.424,0,11.765-3.092,11.765-10.722v-17.229h-7.872v16.506c0,3.092-1.684,4.456-3.893,4.456
			c-2.21,0-3.896-1.364-3.896-4.456v-16.506h-7.872v17.229C290.456,206.863,295.797,209.955,302.224,209.955 M270.86,209.315h7.87
			V188.39h6.787v-6.385h-21.484v6.385h6.828V209.315z M252.948,209.756c3.252,0,5.984-0.845,7.63-1.687v-6.868
			c-1.567,0.844-3.373,1.566-6.226,1.566s-6.987-2.169-6.987-7.11c0-4.938,3.776-7.268,7.432-7.268c2.488,0,4.214,0.563,5.74,1.325
			v-6.787c-1.605-0.721-3.613-1.284-6.828-1.284c-8.071,0-14.938,5.303-14.938,14.014
			C238.772,204.373,244.917,209.756,252.948,209.756"/>
		<path fill="#0065BD" d="M523.778,169.062c4.857,0,8.232-1.486,9.879-2.328v-12.091h-7.671v7.391
			c-0.562,0.121-1.165,0.199-1.768,0.199c-3.053,0-6.424-2.329-6.424-7.467c0-5.544,2.969-8.273,8.07-8.273
			c2.812,0,5.222,0.964,6.707,1.765v-6.424c-1.605-0.725-4.256-1.729-7.87-1.729c-9.277,0-15.505,5.742-15.505,14.661
			C509.197,163.681,516.146,169.062,523.778,169.062 M476.911,168.42h7.872v-16.386h0.12l8.273,16.386h9.599v-27.311h-7.872v16.307
			h-0.12l-8.192-16.307h-9.68V168.42z M461.009,168.42h7.87v-27.311h-7.87V168.42z M439.687,153.72v-6.786h3.172
			c2.128,0,3.373,1.646,3.373,3.375c0,1.726-1.245,3.411-3.373,3.411H439.687z M431.814,168.42h7.872v-9.599h2.007l4.739,9.599
			h8.873l-5.02-8.436c-0.521-0.883-1.163-1.686-1.523-1.927l0.039-0.16c2.408-1.085,5.822-3.131,5.822-7.79
			c0-4.9-3.894-8.998-10.28-8.998h-12.529V168.42z M405.792,168.42h18.833v-6.226h-10.963v-4.418h10.603v-6.063h-10.603v-4.378
			h10.963v-6.226h-18.833V168.42z M379.767,168.42h18.838v-6.226h-10.967v-4.418h10.604v-6.063h-10.604v-4.378h10.967v-6.226
			h-18.838V168.42z M345.874,168.42h7.872v-16.386h0.12l8.273,16.386h9.597v-27.311h-7.87v16.307h-0.121l-8.191-16.307h-9.68V168.42
			z M329.972,168.42h7.87v-27.311h-7.87V168.42z M313.266,169.062c4.859,0,8.234-1.486,9.881-2.328v-12.091h-7.673v7.391
			c-0.562,0.121-1.162,0.199-1.766,0.199c-3.052,0-6.427-2.329-6.427-7.467c0-5.544,2.974-8.273,8.073-8.273
			c2.812,0,5.22,0.964,6.705,1.765v-6.424c-1.606-0.725-4.256-1.729-7.87-1.729c-9.277,0-15.501,5.742-15.501,14.661
			C298.688,163.681,305.635,169.062,313.266,169.062 M266.4,168.42h7.872v-16.386h0.121l8.271,16.386h9.599v-27.311h-7.872v16.307
			h-0.119l-8.193-16.307H266.4V168.42z M240.378,168.42h18.834v-6.226H248.25v-4.418h10.604v-6.063H248.25v-4.378h10.962v-6.226
			h-18.834V168.42z"/>
		<path fill="#0065BD" d="M585.748,127.526h17.63v-6.468h-9.762v-20.841h-7.868V127.526z M569.844,127.526h7.872v-27.309h-7.872
			V127.526z M545.869,127.526h10.76l8.196-27.309h-8.835l-4.661,20.439h-0.159l-4.658-20.439h-8.837L545.869,127.526z
			 M525.589,127.526h7.872v-27.309h-7.872V127.526z M512.016,127.967c3.25,0,5.981-0.844,7.628-1.686v-6.869
			c-1.564,0.846-3.373,1.567-6.226,1.567c-2.851,0-6.987-2.169-6.987-7.108s3.776-7.27,7.432-7.27c2.49,0,4.217,0.563,5.74,1.325
			v-6.785c-1.605-0.723-3.614-1.286-6.827-1.286c-8.071,0-14.938,5.302-14.938,14.016
			C497.838,122.587,503.981,127.967,512.016,127.967 M464.266,100.218v27.309h7.871v-10.563h10.682v-6.063h-10.682v-4.458h10.803
			v-6.224H464.266z M444.225,121.18c-3.493,0-5.259-2.81-5.259-7.309c0-4.497,1.766-7.309,5.259-7.309
			c3.537,0,5.182,2.812,5.182,7.309C449.406,118.37,447.762,121.18,444.225,121.18 M444.225,128.169
			c8.152,0,13.616-5.183,13.616-14.298c0-9.117-5.464-14.296-13.616-14.296c-8.111,0-13.692,5.179-13.692,14.296
			C430.532,122.986,436.113,128.169,444.225,128.169 M399.73,127.526h7.872v-10l9.435-17.309h-8.714l-4.458,9.758h-0.16
			l-4.296-9.758h-8.919l9.24,17.309V127.526z M374.509,127.526h7.872v-20.925h6.787v-6.383h-21.486v6.383h6.827V127.526z
			 M350.573,127.526h17.631v-6.468h-9.759v-20.841h-7.872V127.526z M330.978,128.169c6.424,0,11.767-3.092,11.767-10.723v-17.229
			h-7.871v16.504c0,3.092-1.688,4.458-3.896,4.458s-3.896-1.366-3.896-4.458v-16.504h-7.871v17.229
			C319.211,125.077,324.553,128.169,330.978,128.169 M305.836,127.967c3.254,0,5.985-0.844,7.632-1.686v-6.869
			c-1.564,0.846-3.372,1.567-6.226,1.567c-2.851,0-6.986-2.169-6.986-7.108s3.775-7.27,7.427-7.27c2.49,0,4.221,0.563,5.745,1.325
			v-6.785c-1.606-0.723-3.613-1.286-6.828-1.286c-8.07,0-14.939,5.302-14.939,14.016
			C291.66,122.587,297.806,127.967,305.836,127.967 M271.823,116.281l2.689-10.082h0.362l2.693,10.082H271.823z M280.575,127.526
			h8.075l-8.194-27.309h-11.525l-8.153,27.309h8.071l1.489-5.662h8.714L280.575,127.526z M240.378,100.218v27.309h7.872v-10.563
			h10.682v-6.063H248.25v-4.458h10.803v-6.224H240.378z"/>
	</g>
</g>
</svg>
