<?xml version="1.0" encoding="utf-8"?>
<!-- Generator: Adobe Illustrator 15.0.0, SVG Export Plug-In . SVG Version: 6.00 Build 0)  -->
<!DOCTYPE svg PUBLIC "-//W3C//DTD SVG 1.1//EN" "http://www.w3.org/Graphics/SVG/1.1/DTD/svg11.dtd">
<svg version="1.1" id="Layer_1" xmlns="http://www.w3.org/2000/svg" xmlns:xlink="http://www.w3.org/1999/xlink" x="0px" y="0px"
	 width="141.73px" height="141.73px" viewBox="0 0 141.73 141.73" enable-background="new 0 0 141.73 141.73" xml:space="preserve">
<rect fill="#0065BD" width="141.732" height="141.732"/>
<g>
	<path fill="#FFFFFF" d="M114.874,61.461l3.631-2.649c-1.374-1.472-2.846-3.237-2.846-6.083c0-2.159,1.472-4.514,3.336-5.494
		c-0.98-1.179-2.551-2.259-4.808-2.259c-2.943,0-5.397,2.159-5.397,5.005c0,1.962,1.277,3.629,2.748,4.416
		C111.538,57.145,112.813,59.597,114.874,61.461 M95.447,42.132l3.041-5.398h-4.514c0,0.982-0.883,2.062-1.963,2.062
		c-1.178,0-1.962-0.785-1.962-2.062h-4.022c0,1.179-0.884,2.062-1.963,2.062c-1.078,0-1.963-0.882-1.963-2.062h-4.513l2.648,5.201
		c2.061-0.195,4.023-0.294,5.985-0.294C89.854,41.641,92.993,41.837,95.447,42.132 M87.205,90.016
		c-0.491-0.884-0.982-1.964-0.982-3.926c0-2.552,1.473-4.709,4.611-6.083c2.062-0.982,3.631-1.864,6.379-3.238
		c6.477-3.337,8.733-9.615,8.733-16.09c0-3.239-0.884-5.791-1.964-7.949c0.295,1.767,0.589,3.238,0.589,5.005
		c0,6.77-2.354,11.773-8.536,14.815c-3.926,1.962-5.887,2.748-8.242,3.926c-3.336,1.765-5.2,4.021-5.2,6.768
		C82.593,86.68,84.358,89.229,87.205,90.016 M83.377,88.739c-1.079-1.08-2.256-3.042-2.256-5.594c0-3.236,2.158-5.985,5.985-7.947
		c3.336-1.569,5.298-2.354,8.241-3.729c6.183-3.042,8.047-8.242,8.047-13.835c0-5.396-1.767-8.145-3.238-9.91
		c1.079,2.06,1.374,4.514,1.374,6.573c0,5.985-1.767,11.186-8.732,13.933c-3.533,1.472-5.79,1.963-8.832,3.336
		c-4.808,2.259-6.672,4.908-6.672,8.832C77.294,84.128,79.649,87.659,83.377,88.739 M79.649,87.954
		c-1.669-1.374-3.828-3.629-3.828-7.652c0-4.221,1.768-7.36,7.263-9.714c3.531-1.472,5.396-2.159,8.732-3.434
		c7.064-2.649,8.536-7.852,8.536-12.953c0-4.906-1.767-7.752-3.926-9.616c1.277,1.569,2.062,4.22,2.062,6.967
		c0,6.476-2.453,10.106-9.42,12.559c-2.846,0.884-5.887,1.767-9.026,2.944c-5.692,2.159-8.636,5.3-8.636,10.598
		C71.406,83.146,75.626,87.269,79.649,87.954 M75.724,87.269c-3.925-1.964-5.789-6.183-5.789-9.911
		c0-5.397,3.336-9.224,8.928-11.284c3.435-1.276,6.183-2.061,9.616-3.238c6.673-2.354,8.832-5.496,8.832-11.481
		c0-3.434-1.276-6.378-3.337-8.045c0.688,0.785,0.884,1.767,0.884,2.649c0,1.667-0.884,2.454-2.159,2.454
		c-0.785,0-1.57-0.492-1.668-1.277c0.393,0.295,0.688,0.393,1.078,0.393c1.081,0,1.669-0.785,1.669-1.864
		c0-1.667-1.57-2.552-3.14-2.747c-1.374-0.195-2.846-0.195-4.515-0.195c-1.667,0-3.237,0.098-5.297,0.195
		c1.274,1.765,5.493,1.275,6.77,2.159c-1.079-0.1-2.158-0.1-3.238,0.195c0,0.687-0.294,1.472-0.981,1.472
		c-1.275,0-1.862-1.375-2.747-3.827l-5.004,0.393c-0.784,0.098-1.079,0.392-0.981,0.982l0.491,4.904
		c0,0.197,0.196,0.295,0.393,0.295c0.195,0,0.392-0.098,0.49-0.393c0.195-0.391,0.785-1.275,2.257-1.275
		c2.158,0,3.826,1.962,3.924,4.219c-0.783-1.079-2.55-2.06-5.493-2.06c-2.258,0-4.121,0.686-7.065,0.686
		c-3.14,0-4.906-1.177-4.906-2.649c0-0.685,0.098-1.078,0.49-1.569c-1.276,0.589-2.257,1.669-2.257,3.436
		c0,2.157,1.57,4.414,6.182,4.414c4.22,0,6.182-2.649,10.008-2.649c1.767,0,2.649,0.884,2.649,1.864
		c0,0.884-0.785,1.667-2.158,1.667c-1.669,0-2.846-0.882-3.436-1.765c-0.098-0.195-0.195-0.295-0.393-0.295
		c-0.293,0-0.391,0.197-0.391,0.393l0.098,4.71c0,0.588,0.293,0.882,0.98,0.785c2.944-0.294,5.985-0.687,8.832-0.884
		c5.298-0.49,8.928-4.022,8.928-7.948c0-0.587,0-1.08-0.099-1.667c0.492,0.785,0.688,1.569,0.688,2.551
		c0,3.631-1.963,6.378-8.243,8.045c-3.336,0.883-5.788,1.277-8.635,1.962c-7.555,1.767-12.461,7.555-12.461,14.032
		C65.519,81.086,69.739,86.482,75.724,87.269 M42.854,51.846c0.393-0.884,0.49-1.669,0.49-2.256c0-1.277-0.589-2.454-1.178-2.944
		c1.472,0,2.748,1.079,2.748,2.549C44.914,50.57,44.031,51.454,42.854,51.846 M60.909,75.198l3.139-1.667
		c1.08-6.575,5.004-11.186,11.872-12.853c-3.63,0.195-6.77,0.293-11.185,0.488c-4.711,0.197-12.463,0.787-17.859,1.179
		c-1.08,0.098-1.767-0.294-2.062-1.179c-0.293-0.98-0.882-2.845-0.98-3.924c-0.099-0.882,0.098-1.472,0.883-2.062
		c1.569-1.078,3.139-2.354,3.139-5.003c0-2.844-2.453-4.708-4.709-4.708c-0.785,0-1.373,0.098-1.864,0.294
		c-0.589-0.394-1.177-0.687-2.355-0.687c-1.667,0-3.138,1.078-3.532,1.962c-2.845-0.197-5.102,1.864-4.907,4.611
		c0.394-0.393,1.177-0.785,2.062-0.785c1.08,0,2.06,0.785,2.06,1.962c0,1.08-0.196,2.454-0.196,3.926
		c0,4.513,3.631,6.868,3.631,9.222c0,1.179-0.883,2.159-2.061,2.159c0.687,2.454,2.943,3.729,5.985,3.729
		c1.962,0,3.729-0.195,6.574-0.195C56.688,71.667,60.222,72.55,60.909,75.198 M91.129,102.967h0.98
		c-0.098-3.14-0.882-5.299-2.158-7.556c-0.687-1.274-1.569-2.648-2.256-3.533c-0.393-0.588-0.883-0.783-1.473-0.783
		c-0.393,0-0.687,0.293-0.393,0.783c0.785,1.277,1.865,3.239,3.238,6.28c-1.178,0.197-1.472,0.787-1.472,1.767
		C87.597,101.494,89.068,102.967,91.129,102.967 M39.027,52.239c0.098-2.749-1.08-4.221-2.747-4.906
		c0.294-0.098,0.688-0.295,1.275-0.295c1.277,0,2.65,1.08,2.65,2.747C40.205,50.667,39.91,51.649,39.027,52.239 M101.923,121.315
		c-0.393-0.883-1.669-1.766-3.238-1.766c-0.883,0-1.472,0.195-1.865,0.391c0.099-0.784,0.885-1.667,2.454-1.667
		C101.138,118.273,102.119,119.745,101.923,121.315 M101.333,125.536c-0.588-0.688-1.569-1.277-2.845-1.277
		c-1.57,0-2.354,0.688-2.747,1.178c-0.196-1.178,0.784-2.649,2.648-2.649C100.353,122.787,101.333,124.161,101.333,125.536
		 M31.569,78.73c0.688-1.668,2.257-2.845,4.122-3.237c0.392-0.589,0.882-1.079,1.374-1.472l-3.336-13.933
		c-0.393-0.982-0.687-1.963-0.687-3.336c0-1.472,0.294-2.944,0.294-3.729c0-0.687-0.393-0.884-0.785-0.884
		c-0.294,0-0.491,0-0.589,0.1v0.393c0,2.256-1.374,4.021-3.629,4.021c-2.257,0-4.024-1.863-4.024-4.021
		c0-2.159,1.767-3.924,4.024-3.924c0.392,0,0.882,0,1.472,0.195c0.685-1.767,2.844-3.336,5.101-3.042
		c-1.57-1.962-3.924-3.139-6.573-3.139c-5.692,0-10.205,4.12-10.205,9.91c0,5.396,4.415,9.714,9.911,9.812L31.569,78.73z
		 M46.779,99.827c1.472,0,3.042-0.784,4.514-2.257c2.649-2.551,6.378-6.378,8.634-7.85c1.962-1.274,3.238-1.767,4.514-1.767
		c0.785,0,1.374,0.197,1.962,0.785l3.336-2.552c-3.827-2.845-5.593-6.573-5.691-11.185c-5.298,2.845-9.125,6.769-13.54,10.499
		c-0.786,0.588-1.178,0.883-1.865,0.883c-0.687,0-1.275-0.688-2.453-1.864c-0.982-0.982-1.178-1.57-1.178-2.257
		c0-1.178,0.393-1.569,0.393-3.14c0-3.141-2.452-4.907-4.809-4.907c-1.962,0-3.434,1.081-3.924,2.454
		c-2.649,0.196-4.318,2.158-4.318,4.219c0,0.491,0.099,0.882,0.197,1.177c-0.982,0.59-1.963,1.767-1.963,3.336
		c0,1.669,0.883,3.239,2.354,3.729c-0.195-0.295-0.294-0.686-0.294-1.178c0-0.883,0.785-1.667,1.864-1.667
		c0.883,0,1.472,0.293,2.159,1.077c0.882,1.18,1.767,2.259,3.238,3.534c1.374,1.177,2.944,1.962,4.415,2.846
		c0.883,0.588,1.57,1.373,1.57,2.55c0,0.786-0.588,1.669-1.766,1.964C44.62,99.336,45.602,99.827,46.779,99.827 M41.186,80.694
		c-0.099-1.964-1.57-3.534-3.435-3.926c0.295-0.195,0.786-0.49,1.571-0.49c1.373,0,2.454,1.177,2.454,2.452
		C41.775,79.712,41.48,80.202,41.186,80.694 M52.077,132.306c-0.393-0.491-0.588-0.981-0.588-1.571c0-1.177,0.981-2.06,2.354-2.06
		c2.159,0,3.336,2.354,6.182,2.354c3.239,0,4.809-2.354,7.752-2.354c1.472,0,3.532,0.883,3.532,2.747
		c0,0.295-0.098,0.589-0.293,0.784c3.334,0,5.691-2.844,5.691-7.555c0-6.573-0.197-9.224-0.295-12.854
		c2.551-0.098,5.005-1.374,4.611-5.396c-0.688,0.588-1.472,0.883-2.354,0.883c-1.178,0-2.061-0.883-2.061-2.159
		c0-0.59,0-1.277,0.099-1.962l11.479-0.295c-1.078-0.59-1.864-1.767-1.864-3.14c0-0.981,0.394-1.669,1.18-2.062
		c-1.081-2.257-1.964-4.023-3.043-5.69c-0.589-0.883-1.275-1.767-2.649-1.767c-3.042-0.098-9.223,0.785-12.363,1.864
		c-2.355,0.785-4.612,2.552-4.612,6.575c0,3.727,1.275,10.302,1.177,20.605c0,1.472-0.392,1.962-1.274,2.157
		c-0.786,0.197-2.847,0.393-4.121,0.197c-0.688-0.098-1.276-0.588-1.669-2.061c-0.49-2.061-1.962-4.122-4.906-4.122
		c-2.649,0-5.003,1.964-4.611,4.905c-1.277,0.787-1.865,2.062-1.865,3.239c0,1.177,0.393,2.159,0.883,2.748
		c-0.295,0.688-0.393,1.078-0.393,1.765C48.054,130.539,50.213,132.306,52.077,132.306 M38.242,83.343
		c-0.59-1.177-1.865-1.864-3.336-1.864c-0.588,0-1.08,0.098-1.472,0.195c0.197-0.784,1.08-1.472,2.356-1.472
		C37.457,80.202,38.537,81.479,38.242,83.343 M55.414,121.315c-0.393-0.883-1.669-1.766-3.239-1.766
		c-0.882,0-1.472,0.195-1.864,0.391c0.1-0.784,0.883-1.667,2.454-1.667C54.628,118.273,55.609,119.745,55.414,121.315
		 M47.073,129.853c-0.294-0.59-0.393-1.178-0.393-1.768c0-0.587,0.099-1.077,0.294-1.569c-0.49-0.882-0.784-1.864-0.784-2.943
		c0-1.473,0.686-2.845,1.667-3.729l-6.082-26.394c-0.982-0.489-1.964-1.079-2.749-1.767c-1.375-1.177-2.158-2.06-3.434-3.531
		c-0.392-0.395-0.687-0.59-1.08-0.59c-0.588,0-0.981,0.393-0.785,1.178l1.275,6.083l2.649,1.864l7.36,31.596L47.073,129.853z
		 M54.825,125.536c-0.588-0.688-1.57-1.277-2.845-1.277c-1.569,0-2.356,0.688-2.749,1.178c-0.195-1.178,0.786-2.649,2.65-2.649
		C53.843,122.787,54.825,124.161,54.825,125.536 M6.353,132.894l5.984-4.611l7.359-31.596l2.651-1.864l5.887-25.314l-1.275-5.888
		c-1.472-0.295-2.749-0.687-3.827-1.275L6.353,132.894z M98.586,132.306c-0.393-0.491-0.589-0.981-0.589-1.571
		c0-1.177,0.981-2.06,2.355-2.06c2.158,0,3.337,2.354,6.182,2.354c3.238,0,4.808-2.354,7.752-2.354c1.472,0,3.532,0.883,3.532,2.747
		c0,0.295-0.099,0.589-0.295,0.784c3.336,0,5.691-2.844,5.691-7.555c0-6.28-0.589-13.245-1.276-20.213
		c1.767-0.393,3.436-2.159,3.436-4.416c0-0.784-0.295-1.667-0.786-2.452c-0.49,0.688-1.373,1.275-2.845,1.668
		c-2.061,0.589-4.612,0.884-6.476,0.884c-4.22,0-5.594-0.295-7.556-0.884c-0.099-2.649-1.766-4.807-3.337-6.278
		c2.453,0.979,3.533,1.472,7.458,1.472c12.56,0,20.311-8.439,20.311-18.056c0-6.966-4.415-10.205-8.438-12.561l-3.729,2.651
		c4.514,2.06,7.457,5.101,7.457,9.222c0,4.514-3.63,7.752-7.85,7.752c-4.514,0-8.046-3.238-8.046-7.654
		c0-3.334,1.57-5.788,4.515-8.143c2.942-2.356,7.456-5.201,9.909-7.85c1.276-1.375,2.355-3.532,2.257-5.201
		c1.669-0.785,2.943-2.454,2.943-4.611c0-2.846-2.746-5.005-5.69-5.005c-1.767,0-3.729,1.08-4.711,2.259
		c1.767,0.685,3.437,3.042,3.437,5.494c0,2.061-1.277,3.826-2.749,5.298c-2.257,2.256-5.2,3.926-8.438,6.575
		c-3.925,3.239-6.28,7.065-6.28,11.381c0,5.985,4.612,11.578,11.873,11.578c2.355,0,4.22-0.49,5.595-1.374
		c-2.356,2.749-6.772,4.121-11.384,4.121c-4.023,0-6.77-0.588-9.714-2.747c-2.649-1.962-4.71-6.573-4.611-10.009
		c-2.159,1.276-4.71,2.454-6.867,3.436c-3.043,1.473-4.024,3.042-4.024,5.691c0,3.531,2.453,6.28,3.532,8.34
		c1.472,2.648,1.963,5.003,2.159,7.457c0.589,5.985,4.023,8.732,10.106,8.732c2.747,0,6.378-0.197,7.85-0.393
		c0.589,2.748,1.275,5.985,1.275,8.439c0,1.472-0.393,1.962-1.275,2.157c-0.785,0.197-2.847,0.393-4.121,0.197
		c-0.688-0.098-1.275-0.588-1.669-2.061c-0.49-2.061-1.962-4.122-4.905-4.122c-2.649,0-5.004,1.964-4.611,4.905
		c-1.275,0.787-1.865,2.062-1.865,3.239c0,1.177,0.393,2.159,0.883,2.748c-0.293,0.688-0.392,1.078-0.392,1.765
		C94.563,130.539,96.722,132.306,98.586,132.306"/>
</g>
</svg>
